<svg xmlns="http://www.w3.org/2000/svg" viewBox="0 0 382.54 612"><defs><style>.cls-1{fill:#fff;}</style></defs><title>flame</title><g id="Слой_2" data-name="Слой 2"><g id="Capa_1" data-name="Capa 1"><path class="cls-1" d="M101.29,611.2a6.6,6.6,0,0,0,8.62-9.4c-19.87-30.92-38.68-82.95-8.71-150,50-111.74,80.4-169.61,80.4-169.61s16.18,67.54,60,127.58c42.2,57.79,65.31,130.48,28.06,191a6.6,6.6,0,0,0,8.61,9.35c46.1-23.58,97.81-70.89,103.64-165,2.15-28.76-1.08-69-17.21-119.85C344,260.92,318.5,230.87,303.75,218a6.6,6.6,0,0,0-10.91,5.41c4.3,69.49-21.85,87.13-36.73,47.39-5.94-15.87-9.41-43.33-9.41-76.77,0-55.67-16.15-113-51.76-159.53A180.67,180.67,0,0,0,162.42,1.39a6.6,6.6,0,0,0-10.61,5.7c2.73,37.74.26,145.88-94.62,275.09C-28.84,402,4.49,494.08,16.32,519,38.94,566.77,70.48,594.81,101.29,611.2Z"/></g></g></svg>