<svg xmlns="http://www.w3.org/2000/svg" viewBox="0 0 95.43 95.67"><defs><style>.cls-1{fill:#464646;}</style></defs><title>login</title><g id="Слой_2" data-name="Слой 2"><g id="Capa_1" data-name="Capa 1"><path class="cls-1" d="M39.05,72.34,78.5,49.57a2,2,0,0,0,0-3.46L39.05,23.32a2,2,0,0,0-3,1.73v10.6H2a2,2,0,0,0-2,2V58a2,2,0,0,0,2,2H36.05v10.6a2,2,0,0,0,3,1.74Z"/><path class="cls-1" d="M80.65,0H39.91a2,2,0,0,0-2,2V8a2,2,0,0,0,2,2H80.65a4.78,4.78,0,0,1,4.77,4.77V80.9a4.78,4.78,0,0,1-4.77,4.77H39.91a2,2,0,0,0-2,2v6a2,2,0,0,0,2,2H80.65A14.79,14.79,0,0,0,95.43,80.9V14.77A14.79,14.79,0,0,0,80.65,0Z"/></g></g></svg>